<svg xmlns="http://www.w3.org/2000/svg" width="1280" height="760" viewBox="0 0 1280 760">
  <defs>
    <filter id="shadow" x="-20%" y="-20%" width="140%" height="140%">
      <feDropShadow dx="0" dy="18" stdDeviation="18" flood-color="#18251b" flood-opacity=".18"/>
    </filter>
    <linearGradient id="panel" x1="0" y1="0" x2="1" y2="1">
      <stop offset="0" stop-color="#f5fbf7"/>
      <stop offset="1" stop-color="#ffffff"/>
    </linearGradient>
    <linearGradient id="chatBg" x1="0" y1="0" x2="0" y2="1">
      <stop offset="0" stop-color="#fbfdf9"/>
      <stop offset="1" stop-color="#f5faf2"/>
    </linearGradient>
  </defs>

  <rect width="1280" height="760" fill="#eef2eb"/>
  <rect x="44" y="36" width="1192" height="680" rx="8" fill="#fff" filter="url(#shadow)"/>
  <rect x="44" y="36" width="1192" height="74" rx="8" fill="#ff6266"/>
  <rect x="44" y="102" width="1192" height="8" fill="#ff6266"/>
  <text x="640" y="82" text-anchor="middle" font-size="28" font-weight="800" fill="#10331f">在线客服</text>
  <text x="1206" y="74" text-anchor="middle" font-size="28" fill="#fff">×</text>

  <rect x="68" y="134" width="246" height="476" rx="8" fill="url(#panel)" stroke="#dfe9df"/>
  <circle cx="116" cy="188" r="34" fill="#e9f3e6"/>
  <text x="116" y="200" text-anchor="middle" font-size="32" fill="#2f6f4e">◎</text>
  <text x="164" y="178" font-size="24" font-weight="900" fill="#183122">在线客服</text>
  <text x="164" y="206" font-size="14" fill="#6a786c">预约、订单、售后咨询</text>
  <rect x="92" y="246" width="198" height="44" rx="22" fill="#e9f3e6"/>
  <circle cx="115" cy="268" r="7" fill="#2f6f4e"/>
  <text x="134" y="276" font-size="18" font-weight="800" fill="#2f6f4e">客服在线</text>
  <text x="92" y="340" font-size="15" font-weight="800" fill="#496a45">常用问题</text>
  <rect x="92" y="362" width="198" height="38" rx="19" fill="#fff" stroke="#dfe9df"/>
  <text x="111" y="387" font-size="15" font-weight="700" fill="#496a45">如何预约上门服务？</text>
  <rect x="92" y="414" width="198" height="38" rx="19" fill="#fff" stroke="#dfe9df"/>
  <text x="111" y="439" font-size="15" font-weight="700" fill="#496a45">订单状态怎么查看？</text>
  <rect x="92" y="466" width="198" height="38" rx="19" fill="#fff" stroke="#dfe9df"/>
  <text x="111" y="491" font-size="15" font-weight="700" fill="#496a45">可以修改预约时间吗？</text>

  <rect x="334" y="134" width="878" height="476" rx="8" fill="url(#chatBg)" stroke="#dfe9df"/>
  <text x="364" y="168" font-size="14" font-weight="700" fill="#78907b">聊天记录</text>
  <g transform="translate(1015 178)">
    <rect x="0" y="0" width="72" height="60" rx="8" fill="#2f6f4e"/>
    <text x="36" y="38" text-anchor="middle" font-size="20" font-weight="700" fill="#fff">111</text>
    <circle cx="108" cy="30" r="22" fill="#2a1b12"/>
    <circle cx="101" cy="24" r="3" fill="#f1c58f"/>
    <circle cx="115" cy="24" r="3" fill="#f1c58f"/>
  </g>
  <g transform="translate(1000 272)">
    <rect x="0" y="0" width="87" height="60" rx="8" fill="#2f6f4e"/>
    <text x="43" y="38" text-anchor="middle" font-size="20" font-weight="700" fill="#fff">1111</text>
    <circle cx="123" cy="30" r="22" fill="#2a1b12"/>
    <circle cx="116" cy="24" r="3" fill="#f1c58f"/>
    <circle cx="130" cy="24" r="3" fill="#f1c58f"/>
  </g>
  <g transform="translate(1015 366)">
    <rect x="0" y="0" width="72" height="60" rx="8" fill="#2f6f4e"/>
    <text x="36" y="38" text-anchor="middle" font-size="20" font-weight="700" fill="#fff">111</text>
    <circle cx="108" cy="30" r="22" fill="#2a1b12"/>
    <circle cx="101" cy="24" r="3" fill="#f1c58f"/>
    <circle cx="115" cy="24" r="3" fill="#f1c58f"/>
  </g>
  <rect x="1190" y="158" width="6" height="426" rx="3" fill="#c7d5c7"/>
  <rect x="1190" y="388" width="6" height="100" rx="3" fill="#7f927e"/>

  <rect x="68" y="628" width="1144" height="64" rx="8" fill="#fff" stroke="#dfe9df"/>
  <rect x="88" y="644" width="54" height="34" rx="6" fill="#fbfdf9" stroke="#dfe9df"/>
  <text x="115" y="667" text-anchor="middle" font-size="20" fill="#2f6f4e">↗</text>
  <text x="160" y="668" font-size="18" fill="#a0a9a1">请输入内容</text>
  <circle cx="1172" cy="660" r="22" fill="#fff" stroke="#dfe9df"/>
  <text x="1172" y="668" text-anchor="middle" font-size="24" fill="#9aa79b">↑</text>

  <text x="68" y="732" font-size="20" font-weight="800" fill="#183122">方案 B：客服侧栏 + 聊天主区</text>
  <text x="330" y="732" font-size="16" fill="#617364">保留客服状态和快捷问题，但聊天记录仍占主要面积。</text>
</svg>
