<svg xmlns="http://www.w3.org/2000/svg" width="1280" height="760" viewBox="0 0 1280 760">
  <defs>
    <filter id="shadow" x="-20%" y="-20%" width="140%" height="140%">
      <feDropShadow dx="0" dy="18" stdDeviation="18" flood-color="#18251b" flood-opacity=".18"/>
    </filter>
    <linearGradient id="chatBg" x1="0" y1="0" x2="0" y2="1">
      <stop offset="0" stop-color="#fbfdf9"/>
      <stop offset="1" stop-color="#f5faf2"/>
    </linearGradient>
  </defs>

  <rect width="1280" height="760" fill="#eef2eb"/>
  <rect x="44" y="36" width="1192" height="680" rx="8" fill="#fff" filter="url(#shadow)"/>
  <rect x="44" y="36" width="1192" height="74" rx="8" fill="#ff6266"/>
  <rect x="44" y="102" width="1192" height="8" fill="#ff6266"/>
  <text x="640" y="82" text-anchor="middle" font-size="28" font-weight="800" fill="#10331f">在线客服</text>
  <text x="1206" y="74" text-anchor="middle" font-size="28" fill="#fff">×</text>

  <rect x="68" y="136" width="1144" height="472" rx="8" fill="url(#chatBg)" stroke="#dfe9df"/>
  <text x="98" y="170" font-size="14" font-weight="700" fill="#78907b">沉浸式聊天区域</text>

  <g transform="translate(1015 178)">
    <rect x="0" y="0" width="72" height="60" rx="8" fill="#2f6f4e"/>
    <text x="36" y="38" text-anchor="middle" font-size="20" font-weight="700" fill="#fff">111</text>
    <circle cx="108" cy="30" r="22" fill="#2a1b12"/>
    <circle cx="101" cy="24" r="3" fill="#f1c58f"/>
    <circle cx="115" cy="24" r="3" fill="#f1c58f"/>
  </g>
  <g transform="translate(1015 272)">
    <rect x="0" y="0" width="72" height="60" rx="8" fill="#2f6f4e"/>
    <text x="36" y="38" text-anchor="middle" font-size="20" font-weight="700" fill="#fff">111</text>
    <circle cx="108" cy="30" r="22" fill="#2a1b12"/>
    <circle cx="101" cy="24" r="3" fill="#f1c58f"/>
    <circle cx="115" cy="24" r="3" fill="#f1c58f"/>
  </g>
  <g transform="translate(998 366)">
    <rect x="0" y="0" width="89" height="60" rx="8" fill="#2f6f4e"/>
    <text x="44" y="38" text-anchor="middle" font-size="20" font-weight="700" fill="#fff">1111</text>
    <circle cx="125" cy="30" r="22" fill="#2a1b12"/>
    <circle cx="118" cy="24" r="3" fill="#f1c58f"/>
    <circle cx="132" cy="24" r="3" fill="#f1c58f"/>
  </g>
  <g transform="translate(1015 460)">
    <rect x="0" y="0" width="72" height="60" rx="8" fill="#2f6f4e"/>
    <text x="36" y="38" text-anchor="middle" font-size="20" font-weight="700" fill="#fff">111</text>
    <circle cx="108" cy="30" r="22" fill="#2a1b12"/>
    <circle cx="101" cy="24" r="3" fill="#f1c58f"/>
    <circle cx="115" cy="24" r="3" fill="#f1c58f"/>
  </g>
  <rect x="1190" y="158" width="6" height="426" rx="3" fill="#c7d5c7"/>
  <rect x="1190" y="440" width="6" height="100" rx="3" fill="#7f927e"/>

  <rect x="68" y="628" width="1144" height="64" rx="8" fill="#fff" stroke="#dfe9df"/>
  <rect x="88" y="644" width="54" height="34" rx="6" fill="#fbfdf9" stroke="#dfe9df"/>
  <text x="115" y="667" text-anchor="middle" font-size="20" fill="#2f6f4e">↗</text>
  <text x="160" y="668" font-size="18" fill="#a0a9a1">请输入内容</text>
  <circle cx="1172" cy="660" r="22" fill="#fff" stroke="#dfe9df"/>
  <text x="1172" y="668" text-anchor="middle" font-size="24" fill="#9aa79b">↑</text>

  <text x="68" y="732" font-size="20" font-weight="800" fill="#183122">方案 A：大面积聊天记录区</text>
  <text x="300" y="732" font-size="16" fill="#617364">适合你发的参考图，减少顶部卡片和快捷问题占位，聊天区最大。</text>
</svg>
